<?xml version="1.0" encoding="UTF-8" standalone="no"?>
<svg
   xmlns:dc="http://purl.org/dc/elements/1.1/"
   xmlns:cc="http://creativecommons.org/ns#"
   xmlns:rdf="http://www.w3.org/1999/02/22-rdf-syntax-ns#"
   xmlns:svg="http://www.w3.org/2000/svg"
   xmlns="http://www.w3.org/2000/svg"
   xmlns:sodipodi="http://sodipodi.sourceforge.net/DTD/sodipodi-0.dtd"
   xmlns:inkscape="http://www.inkscape.org/namespaces/inkscape"
   viewBox="0 -256 1402.2925 1402.2925"
   id="svg3741"
   version="1.1"
   inkscape:version="0.92.5 (2060ec1f9f, 2020-04-08)"
   width="1402.2925"
   height="1402.2925"
   sodipodi:docname="back2.svg">
  <metadata
     id="metadata3751">
    <rdf:RDF>
      <cc:Work
         rdf:about="">
        <dc:format>image/svg+xml</dc:format>
        <dc:type
           rdf:resource="http://purl.org/dc/dcmitype/StillImage" />
        <dc:title></dc:title>
      </cc:Work>
    </rdf:RDF>
  </metadata>
  <defs
     id="defs3749" />
  <sodipodi:namedview
     pagecolor="#ffffff"
     bordercolor="#666666"
     borderopacity="1"
     objecttolerance="10"
     gridtolerance="10"
     guidetolerance="10"
     inkscape:pageopacity="0"
     inkscape:pageshadow="2"
     inkscape:window-width="1920"
     inkscape:window-height="1019"
     id="namedview3747"
     showgrid="false"
     inkscape:zoom="0.50351136"
     inkscape:cx="614.53987"
     inkscape:cy="651.76211"
     inkscape:window-x="1366"
     inkscape:window-y="0"
     inkscape:window-maximized="1"
     inkscape:current-layer="svg3741"
     fit-margin-top="0"
     fit-margin-left="0"
     fit-margin-right="0"
     fit-margin-bottom="0" />
  <path
     inkscape:connector-curvature="0"
     id="path4003"
     style="font-style:normal;font-variant:normal;font-weight:normal;font-stretch:normal;font-size:11.38508987px;line-height:125%;font-family:'Segoe UI Symbol';-inkscape-font-specification:'Segoe UI Symbol';text-align:start;letter-spacing:0px;word-spacing:0px;writing-mode:lr-tb;text-anchor:start;fill:#1a1a1a;fill-opacity:1;stroke:none;stroke-width:156.35560608"
     d="m 121.4292,444.83844 c 0.001,53.00948 6.98763,104.0676 20.9574,153.17371 13.97294,49.10566 33.49201,95.23183 58.55729,138.38051 25.06795,43.14646 55.16838,82.3902 90.30147,117.73075 35.13557,35.33856 74.17363,65.64496 117.11458,90.91776 42.94303,25.27131 89.06969,44.89281 138.38012,58.86533 49.31224,13.9704 100.47271,20.9565 153.4816,20.9574 53.01054,-9e-4 104.06831,-6.9905 153.17357,-20.9574 49.10653,-13.97252 95.02768,-33.59402 137.76364,-58.86533 42.73693,-25.2728 81.87793,-55.5792 117.42273,-90.91776 35.5457,-35.34055 65.9543,-74.58429 91.2261,-117.73075 25.2724,-43.14868 44.9969,-89.27485 59.1736,-138.38051 14.1773,-49.10611 21.2658,-100.16423 21.2655,-153.17371 3e-4,-53.00946 -6.9855,-104.06762 -20.9573,-153.17311 -13.9713,-49.10617 -33.5931,-95.13012 -58.8655,-138.07182 C 1175.1523,110.6511 1144.8464,71.61339 1109.5061,36.478949 1074.1668,1.34451 1034.9232,-28.85877 991.77527,-54.130882 948.62836,-79.403014 902.50176,-99.024595 853.39523,-112.99632 c -49.10526,-13.97104 -100.16303,-20.95726 -153.17357,-20.95726 -53.00889,0 -104.16936,6.98342 -153.4816,20.95726 -49.31043,13.971725 -95.43709,33.490948 -138.38012,58.557632 C 365.41899,-29.372 326.38093,0.72821 291.24536,35.862629 256.11227,70.99707 226.01184,110.13787 200.94389,153.28499 c -25.06528,43.14786 -44.58435,89.27417 -58.55729,138.38034 -13.97012,49.10549 -20.95599,100.16365 -20.9574,153.17311 z m 194.16361,2.46804 v -2.46804 L 597.90051,149.58716 H 802.54285 L 587.42188,369.63912 h 467.84172 v 152.8653 H 587.42188 l 215.12097,220.0519 H 597.90051 Z M 0,444.22145 C 0.00147,380.5272 8.4257445,319.09348 25.272046,259.92023 42.121642,200.7463 65.955357,145.16853 96.773543,93.18625 127.59452,41.203979 164.37266,-6.15566 207.1078,-48.892621 249.84555,-91.628896 297.20505,-128.4068 349.18614,-159.2264 c 51.98359,-30.81958 107.6643,-54.65364 167.04241,-71.50149 C 575.60869,-247.57573 637.14508,-256 700.83804,-256 c 63.6947,0 125.23107,8.42498 184.60954,25.27211 59.37972,16.84856 115.06042,40.47649 167.04232,70.88519 51.9828,30.4087 99.445,66.981185 142.3866,109.71746 42.9423,42.73696 79.823,90.096599 110.6424,142.07889 30.8198,51.98226 54.6537,107.6631 71.5015,167.04177 16.8482,59.37938 25.2723,121.12091 25.2721,185.22603 2e-4,63.69352 -8.4239,125.23025 -25.2721,184.60963 -16.8478,59.37871 -40.6817,115.05959 -71.5015,167.04264 -30.8194,51.98148 -67.7001,99.44355 -110.6424,142.38665 -42.9416,42.94091 -90.4038,79.82123 -142.3866,110.64213 -51.9819,30.8183 -107.6626,54.7554 -167.04232,71.8102 -59.37847,17.0518 -120.91484,25.5785 -184.60954,25.5798 -63.69296,0 -125.22935,-8.425 -184.60949,-25.2722 -59.37811,-16.8491 -115.05882,-40.5801 -167.04241,-71.1928 C 297.20505,1019.2119 249.84555,982.43398 207.1078,939.49287 164.37266,896.54977 127.59452,849.08789 96.773543,797.10618 65.955357,745.12336 42.121642,689.33926 25.272046,629.75587 8.4255345,570.17049 0.0014724,508.32584 0,444.22145 Z" />
</svg>
